<svg width="24" height="24" viewBox="0 0 24 24" fill="none" xmlns="http://www.w3.org/2000/svg">
<path d="M11 18C11 18.5523 11.4477 19 12 19C12.5523 19 13 18.5523 13 18H11ZM13 12C13 11.4477 12.5523 11 12 11C11.4477 11 11 11.4477 11 12H13ZM13 18V12H11V18H13Z" fill="#A4A6B3"/>
<path d="M9 14C8.44772 14 8 14.4477 8 15C8 15.5523 8.44772 16 9 16L9 14ZM15 16C15.5523 16 16 15.5523 16 15C16 14.4477 15.5523 14 15 14V16ZM9 16L15 16V14L9 14L9 16Z" fill="#A4A6B3"/>
<path d="M18 21H6C5.44772 21 5 20.5523 5 20L5 4C5 3.44772 5.44772 3 6 3L13.5631 3C13.8416 3 14.1076 3.11619 14.2968 3.32059L18.7338 8.11246C18.9049 8.29731 19 8.53995 19 8.79187L19 20C19 20.5523 18.5523 21 18 21Z" stroke="#A4A6B3" stroke-width="2" stroke-linecap="round" stroke-linejoin="round"/>
<path d="M19 9L14 9C13.4477 9 13 8.55228 13 8L13 3" stroke="#A4A6B3" stroke-width="2" stroke-linecap="round" stroke-linejoin="round"/>
</svg>
